<svg xmlns="http://www.w3.org/2000/svg" viewBox="20 20 321 321">
  <g fill="#fff">
    <path
       d="m 180.90237,51.650523 c -73.66763,0 -133.332506,59.033667 -133.332506,131.921957 0,61.9977 42.995475,113.45289 101.003626,127.9587 -0.6695,-1.65044 -0.99857,-3.96328 -0.99857,-6.26489 V 282.83393 H 130.9055 c -8.99851,0 -17.33889,-3.95205 -21.00411,-11.21618 -4.33473,-7.9153 -5.00423,-20.1195 -15.999902,-27.70922 -3.336149,-2.63844 -0.669498,-5.27688 2.995726,-4.95128 7.001376,1.97602 12.663746,6.60171 17.997066,13.51779 5.33328,6.92731 7.67086,8.57774 17.66797,8.57774 4.66378,0 11.99423,-0.32559 18.66653,-1.32483 3.66523,-9.24016 9.99712,-17.48107 17.66797,-21.43311 -44.66353,-5.27688 -65.99674,-27.0468 -65.99674,-56.73207 0,-12.8666 5.66238,-25.07077 15.00134,-35.62453 -2.99574,-10.22817 -7.00138,-31.33568 1.33898,-39.57659 20.00554,0 31.9998,12.8666 34.99555,16.15622 9.9971,-3.30086 21.00411,-5.27687 32.32886,-5.27687 11.66519,0 22.33176,1.97601 32.32887,5.27687 2.99572,-3.30086 15.00132,-16.15622 34.99552,-16.15622 7.99996,7.91531 4.33473,29.34842 0.99859,39.57659 9.33894,10.22816 14.67224,22.75793 14.67224,35.62453 0,29.68527 -21.00412,51.45519 -65.32724,56.06965 12.33466,6.26489 21.00412,24.07155 21.00412,37.26374 v 30.04453 c 0,0.98799 -0.32907,1.97602 -0.32907,2.96403 51.99399,-17.80666 89.32708,-66.61217 89.32708,-124.33224 0,-72.88829 -59.66486,-131.921957 -133.33248,-131.921957 z"/>
  </g>
</svg>
